# xmcd
#
# Track frame offsets: 
#        150
#        16359
#        33084
#        52993
#        66969
#        86657
#        105590
#        122567
#        142513
#        159845
#        177594
#        199686
#        218191
#        240859
#        258740
#        273689
#        288296
#
# Disc length: 4078 seconds
#
# Revision: 0
# Processed by: cddbd v1.5.2PL0 Copyright (c) Steve Scherf et al.
# Submitted via: ExactAudioCopy v1.3
#
DISCID=e60fec11
DTITLE=Charlie Landsborough - Once In A While
DYEAR=2001
DGENRE=Country
TTITLE0=What'll I Do
TTITLE1=I Don't Know Why I Love You But I Do
TTITLE2=Bewitched
TTITLE3=Me and The Elephant
TTITLE4=Imagine
TTITLE5=Always on my Mind
TTITLE6=Gasoline Alley
TTITLE7=Once In A While
TTITLE8=Fields Of Gold
TTITLE9=If You Could Read My Mind
TTITLE10=I'll Take You Home Again Kathleen
TTITLE11=Just One More Chance
TTITLE12=Love Me
TTITLE13=Every Time We Say Goodbye
TTITLE14=Once In A While (Radio Edit)
TTITLE15=Further Down The Road (Live)
TTITLE16=No Time At All (Live)
EXTD=
EXTT0=
EXTT1=
EXTT2=
EXTT3=
EXTT4=
EXTT5=
EXTT6=
EXTT7=
EXTT8=
EXTT9=
EXTT10=
EXTT11=
EXTT12=
EXTT13=
EXTT14=
EXTT15=
EXTT16=
PLAYORDER=
